<?xml version="1.0" encoding="utf-8"?>
<!-- Generator: Adobe Illustrator 25.0.0, SVG Export Plug-In . SVG Version: 6.00 Build 0)  -->
<svg version="1.1" id="图层_1" xmlns="http://www.w3.org/2000/svg" xmlns:xlink="http://www.w3.org/1999/xlink" x="0px" y="0px"
	 viewBox="0 0 237.7 77.5" style="enable-background:new 0 0 237.7 77.5;" xml:space="preserve">
<style type="text/css">
	.st0{fill:#ffffff;}
	.st1{fill:#ffffff;}
</style>
<g>
	<path class="st0" d="M100.7,55.7l-3.7,0c-0.8,0-1.5-0.7-1.5-1.6c0-0.9,0.7-1.6,1.5-1.6h7c0.4,0,0.7-0.3,0.7-0.7V50
		c0-0.4-0.3-0.7-0.7-0.7h-7.8c-2.4,0-4.4,2.1-4.4,4.8c0,2.6,2,4.8,4.4,4.8l3.6,0c0.8,0,1.5,0.7,1.5,1.6c0,0.9-0.7,1.6-1.5,1.6h-6.9
		c-0.4,0-0.7,0.3-0.7,0.7v1.7c0,0.4,0.3,0.7,0.7,0.7h7.8c2.4,0,4.4-2.1,4.4-4.8C105.1,57.9,103.1,55.7,100.7,55.7z M117.5,49.3
		h-10.8c-0.8,0-1.2,0.6-1.2,1.3v13.6c0,0.7,0.3,1.1,1,1.1h7.8c0.4,0,0.9-0.3,1.1-0.6l1.4-2c0.2-0.3,0.1-0.6-0.3-0.6h-7.4
		c-0.2,0-0.3-0.1-0.3-0.3v-2.6c0-0.2,0-0.4,0.3-0.4h4.9c0.4,0,0.9-0.2,1-0.7l0.4-2.1c0.1-0.3-0.1-0.4-0.2-0.4h-6.1
		c-0.3,0-0.3-0.2-0.3-0.4v-2.6c0-0.2,0.1-0.3,0.3-0.3h7.7c0.4,0,0.8-0.2,0.9-0.7l0.2-2.1C118,49.5,117.8,49.3,117.5,49.3z
		 M130.6,49.3h-10.8c-0.8,0-1.2,0.6-1.2,1.3v13.6c0,0.7,0.3,1.1,1,1.1h7.8c0.4,0,0.9-0.3,1.1-0.6l1.4-2c0.2-0.3,0.1-0.6-0.3-0.6
		h-7.4c-0.2,0-0.3-0.1-0.3-0.3v-2.6c0-0.2,0-0.4,0.3-0.4h4.9c0.4,0,0.9-0.2,1-0.7l0.4-2.1c0.1-0.3-0.1-0.4-0.3-0.4h-6.1
		c-0.3,0-0.3-0.2-0.3-0.4v-2.6c0-0.2,0.1-0.3,0.3-0.3h7.7c0.4,0,0.8-0.2,0.9-0.7l0.2-2.1C131.1,49.5,130.9,49.3,130.6,49.3z
		 M165.8,49.2c-3.8,0-7,3.3-7,7.4v6.3c0,0.2,0,0.4,0,0.6v0c0,1,0.5,1.4,1.2,1.4h0.9c0.7,0,1.4-0.4,1.4-1.4v-4.1v-2.4
		c0-1.3,0.5-3.8,3.4-3.8c3.4,0,3.8,2.5,3.8,3.8v6.6c0,1,0.5,1.4,1.2,1.4h1.2c0.7,0,1.2-0.4,1.2-1.4v-6.9
		C172.9,52.2,170.3,49.2,165.8,49.2z M144.1,49.3c-0.5,0-2.6,0-2.9,0c-0.3,0-0.5,0.3-0.5,0.3l-2.4,4.5c-0.1,0.3-0.4,0.5-0.6,0.1
		l-2.3-4.6c0,0-0.1-0.3-0.5-0.3c-0.4,0-2.7,0-3,0c-0.3,0-0.2,0.2-0.2,0.2l4.4,9.1c0,0,0.1,0.1,0.2,0.2v6.2c0,0.3,0.1,0.4,0.3,0.4
		h2.8c0.2,0,0.3-0.2,0.3-0.4v-6.4c0.1-0.2,0.2-0.3,0.2-0.3l4.3-8.8C144.2,49.6,144.5,49.3,144.1,49.3z M150.3,48.8
		c-3.8,0-7,3.3-7,7.2v1.6c0,0,0,0,0,0v0.2c0,4.2,2.9,7.2,7.4,7.2c3.5,0,6.5-2.8,6.9-6.4c0-0.1,0.1-0.3,0.1-0.5v-0.3c0,0,0,0,0,0V57
		c0,0,0,0,0,0V56C157.8,51.8,154.8,48.8,150.3,48.8z M150.9,61.3c-3.1,0-4.2-1.8-4.2-4.3c0-2.5,1.3-4.4,3.6-4.4
		c1.5,0,4.2,0.6,4.2,4.2C154.5,60.6,152.3,61.3,150.9,61.3z"/>
	<path class="st0" d="M204.6,49.2c-3.8,0-7,3.3-7,7.2V58c0,0,0,0,0,0v0.2c0,4.2,2.9,7.2,7.4,7.2c3.5,0,6.5-2.8,6.9-6.4
		c0-0.1,0.1-0.3,0.1-0.5v-0.3c0,0,0,0,0,0v-0.9c0,0,0,0,0,0v-0.9C212,52.1,209.1,49.2,204.6,49.2z M205.1,61.7
		c-3.1,0-4.2-1.8-4.2-4.3c0-2.5,1.3-4.4,3.6-4.4c1.5,0,4.2,0.6,4.2,4.2C208.7,60.9,206.6,61.7,205.1,61.7z"/>
	<path class="st0" d="M191.3,53C191.3,53,191.4,53,191.3,53l0.1-0.4l0,0.4h5c0.4,0,0.7-0.3,0.7-0.7v-2.3c0-0.4-0.3-0.7-0.7-0.7h-5.1
		v0c-3.6,0.1-6.7,3.3-6.7,7.2V58c0,0,0,0,0,0v0.2c0,4.1,2.7,7,6.8,7.2v-0.4l0,0.4h5c0.4,0,0.7-0.3,0.7-0.7v-2.3
		c0-0.4-0.3-0.7-0.7-0.7h-5v0c-2.6-0.2-3.6-2-3.6-4.3C187.8,54.8,189,53,191.3,53z"/>
	<g>
		<path class="st0" d="M218.7,49.2c-4.3,0-5.6,3.4-5.6,7.4V63c0,0.2,0,0.4,0,0.6v0c0,1,0.5,1.4,1.3,1.4h0.3c0.7,0,1.5-0.4,1.5-1.4
			v-4.2V57c0-1.3,0.1-4.5,2.3-4.5c2.1,0,2,3.2,2,4.5v6.6c0,1.1,0.5,1.4,1.3,1.4h0.6c0.7,0,1.3-0.4,1.3-1.4v-7
			C223.8,52.2,222.4,49.2,218.7,49.2z"/>
		<path class="st0" d="M226.2,49.2c-4.2,0-5.6,3.4-5.6,7.4V63c0,0.2,0,0.4,0,0.6v0c0,1,0.5,1.4,1.3,1.4h0.3c0.7,0,1.5-0.4,1.5-1.4
			v-4.2V57c0-1.3,0.1-4.5,2.3-4.5c2,0,2,3.2,2,4.5v6.6c0,1.1,0.5,1.4,1.3,1.4h0.6c0.7,0,1.3-0.4,1.3-1.4v-7
			C231.3,52.2,229.9,49.2,226.2,49.2z"/>
	</g>
	<path class="st0" d="M180,63.9c0,0.9-0.7,1.6-1.5,1.6c-0.8,0-1.5-0.7-1.5-1.6c0-0.9,0.7-1.6,1.5-1.6C179.3,62.3,180,63,180,63.9z"
		/>
</g>
<g>
	<g>
		<g>
			<g>
				<path class="st0" d="M34.4,76.5c-0.3,0-0.6-0.1-0.9-0.1C33.8,76.4,34.1,76.5,34.4,76.5z"/>
				<path class="st0" d="M57,3.8l-3.3,6.8c14.8,6.2,23.8,21.6,20.9,37.7c-3.3,18.5-21.3,30.9-40.2,28.2
					c21.1,3.1,41.1-10.7,44.8-31.3C82.3,27.8,72.8,11,57,3.8z"/>
			</g>
			<g>
				<path class="st0" d="M45.2,11.6L45.2,11.6c-6.1-1.1-11.9,2.9-13,8.8c3.7-0.8,7.6-0.9,11.5-0.2c16,2.7,26.6,17.5,23.8,33.1
					c-2.8,15.3-17.6,25.6-33.3,23.3c18.1,2.7,35.2-9.2,38.4-26.8C75.9,31.8,63.6,14.7,45.2,11.6z"/>
				<path class="st0" d="M41.3,33.2c12.2,2.1,20.4,13.5,18.3,25.4c-2.2,11.9-13.8,19.9-26.1,17.8l0,0c15,2.6,29.3-7.2,31.9-21.8
					C68.1,40,58,26.1,43.1,23.6c-3.8-0.6-7.5-0.5-11,0.3C32.7,28.4,36.3,32.4,41.3,33.2z"/>
			</g>
		</g>
		<g>
			<g>
				<path class="st1" d="M46.3,0.7c0.3,0,0.6,0.1,0.9,0.1C46.9,0.8,46.6,0.7,46.3,0.7z"/>
				<path class="st1" d="M23.7,73.4l3.3-6.8C12.2,60.4,3.1,44.9,6.1,28.8C9.4,10.3,27.3-2.1,46.3,0.7C25.2-2.5,5.2,11.4,1.5,31.9
					C-1.7,49.4,7.9,66.2,23.7,73.4z"/>
			</g>
			<g>
				<path class="st1" d="M35.4,65.6L35.4,65.6c6.1,1,11.9-2.9,13-8.8c-3.7,0.8-7.5,0.9-11.5,0.2C21,54.3,10.4,39.5,13.2,24
					C16,8.7,30.7-1.6,46.4,0.7C28.3-2,11.2,9.9,8,27.5C4.7,45.4,17,62.5,35.4,65.6z"/>
				<path class="st1" d="M25.2,35.5c-3.6-4.7-5.2-10.7-4.1-16.9c2-10.8,11.8-18.4,22.7-18.1c1.1,0,2.2,0.1,3.4,0.3l0,0
					C32.2-1.8,17.9,8,15.2,22.6c-2.6,14.6,7.4,28.5,22.4,31.1c3.7,0.6,7.5,0.5,10.9-0.3c-0.6-4.6-4.2-8.5-9.2-9.4
					C33.5,43,28.5,39.8,25.2,35.5"/>
			</g>
		</g>
	</g>
	<path class="st1" d="M38,1C38,1,44,0.6,48,1.4c5.2,1.1,9,2.4,9,2.4s-4-1.9-7.9-2.7c-3.7-0.7-5.9-0.8-5.9-0.8L38,1z"/>
	<path class="st0" d="M40.2,76.5c0,0-4.1,0.2-8.1-0.6c-5.2-1-8.5-2.4-8.5-2.4s4,1.9,7.9,2.7c3.7,0.7,5.9,0.8,5.9,0.8L40.2,76.5z"/>
</g>
<g>
	<g>
		<polygon class="st0" points="123.5,19.9 118.6,19.9 116.4,24.6 114.3,19.9 109.3,19.9 113.8,30.2 109,40.3 114,40.3 116.2,35.6
			119.3,42.6 124.3,42.6 118.8,30 		"/>
		<polygon class="st0" points="108.1,32 108.9,30.5 103.4,30.5 103.4,25.7 97.6,25.7 97.6,30.5 92.2,30.5 91.7,32 97.6,32
			97.6,38.8 92.2,38.8 91.7,40.3 108.1,40.3 108.9,38.8 103.4,38.8 103.4,32 		"/>
		<polygon class="st0" points="103.6,23.7 104,24.8 109.6,24.8 105.9,15.9 100.7,15.9 103,22.2 96.7,22.2 102.3,13.3 108.3,13.3
			109,11.8 90.7,11.8 90.2,13.3 96.1,13.3 90.2,23.3 90.2,23.3 89.9,23.7 		"/>
		<polygon class="st0" points="117.7,10.3 112.2,10.3 109.2,18.4 110.8,18.4 114.6,18.4 124.2,18.4 125,16.9 115.2,16.9 		"/>
	</g>
	<g>
		<polygon class="st0" points="136.2,19.9 136,19.9 130.4,19.9 127.9,19.9 127.3,21.4 130.4,21.4 130.4,41.8 134.9,41.8 136.2,41.8
			162.2,41.8 162.9,40.3 136.2,40.3 		"/>
		<polygon class="st0" points="160.1,12 140.8,12 140.2,13.5 159.3,13.5 		"/>
		<polygon class="st0" points="135.7,16.8 134.9,10.3 129.2,10.3 129.9,16.8 		"/>
		<polygon class="st0" points="140.1,38 145.9,38 149,21.8 151,21.8 151,37.9 152.3,37.9 156.8,37.9 160.2,37.9 160.9,36.4
			156.8,36.4 156.8,21.8 161,21.8 161.8,20.3 138.6,20.3 138.1,21.8 143.2,21.8 		"/>
	</g>
	<g>
		<polygon class="st0" points="196.4,12 168.8,12 168.1,13.5 195.6,13.5 		"/>
		<polygon class="st0" points="196.6,40.3 166.2,40.3 165.6,41.8 195.8,41.8 		"/>
		<polygon class="st0" points="174.6,31.6 183.2,12.1 176.7,12.1 167.3,33.2 169.7,33.2 173.6,33.2 187.1,33.2 187.9,31.6 		"/>
		<polygon class="st0" points="187.6,21.7 178.8,41.5 185.4,41.5 194.8,20.4 192.3,20.3 188.4,20.3 174.9,20.3 174.2,21.8 		"/>
	</g>
	<g>
		<polygon class="st0" points="206.9,13 206.9,36.9 201.6,36.9 201.6,13.2 		"/>
		<polygon class="st0" points="214.3,13 214.3,42.6 208.9,42.6 208.9,13.2 		"/>
		<polygon class="st0" points="214.8,12 200.7,12 200.2,13.5 214.1,13.5 		"/>
		<polygon class="st0" points="213.1,20.5 203.6,20.5 203.2,21.8 212.6,21.8 		"/>
		<polygon class="st0" points="214.1,36.9 199.4,36.8 198.8,38.3 213.6,38.3 		"/>
		<polygon class="st0" points="212.9,28.8 203.4,28.8 203,30.3 212.4,30.3 		"/>
	</g>
	<g>
		<polygon class="st0" points="223.7,18.4 221.5,10.2 215.7,10.2 217.9,18.4 		"/>
		<polygon class="st0" points="228.9,18.2 230.7,10.2 224.9,10.2 223.2,18.2 		"/>
		<polygon class="st0" points="231.4,16.9 216,16.9 215.5,18.4 230.6,18.4 		"/>
		<polygon class="st0" points="231.2,26.6 215.8,26.6 215.3,28.1 230.4,28.1 		"/>
		<polygon class="st0" points="215.4,40.3 220.4,40.3 223.9,31.8 228.1,40.3 236.5,40.3 235.6,38.9 232.5,38.9 226.6,27.4
			226.5,18.1 220.3,18.2 220.3,27.4 		"/>
	</g>
</g>
</svg>
